<svg xmlns="http://www.w3.org/2000/svg" viewBox="0 0 226.47 226.47"><defs><style>.cls-1{fill:#fff;}</style></defs><g id="Layer_2" data-name="Layer 2"><g id="White"><path id="Blogger" class="cls-1" d="M87.54,94.21a6.36,6.36,0,0,1,6.12-6.59h18.2a6.32,6.32,0,0,1,1.55-.23,6.43,6.43,0,1,1,.33,12.86c-1.57.24-19.61.08-19.61.08A6.36,6.36,0,0,1,87.54,94.21Zm43.7,31.93H94.37a6.35,6.35,0,1,0-.24,12.7h37.11a6.35,6.35,0,0,0,0-12.7Zm95.23-75.31V175.64a50.83,50.83,0,0,1-50.83,50.83H50.83A50.83,50.83,0,0,1,0,175.64V50.83A50.83,50.83,0,0,1,50.83,0H175.64A50.83,50.83,0,0,1,226.47,50.83Zm-59.93,55.38a5.27,5.27,0,0,0-4.55-5.57c-2.59-.31-5,0-10.44-.78s-4-8-6.12-16.47a34.64,34.64,0,0,0-22.82-22.2,128.66,128.66,0,0,0-37.89,0A33.88,33.88,0,0,0,59.93,93.43v41.73A33.74,33.74,0,0,0,80.33,164,30,30,0,0,0,92,166.69v-.15h43.46a33.92,33.92,0,0,0,27.93-19.93C166.54,139.94,166.54,136.49,166.54,106.21Z"/></g></g></svg>