<svg xmlns="http://www.w3.org/2000/svg" viewBox="0 0 226.47 226.47"><defs><style>.cls-1{fill:#fff;}</style></defs><g id="Layer_2" data-name="Layer 2"><g id="White"><path id="Facebook" class="cls-1" d="M175.64,0H50.83A50.83,50.83,0,0,0,0,50.83V175.64a50.83,50.83,0,0,0,50.83,50.83H175.64a50.83,50.83,0,0,0,50.83-50.83V50.83A50.83,50.83,0,0,0,175.64,0ZM145.2,72.87H132.26c-5.18.16-9,2.12-9.42,8.63V97.19h21.81l-2.9,22.2H123v55.54H100V119.47H81.19v-22h18.9v-15A58.78,58.78,0,0,1,100.8,74a24.72,24.72,0,0,1,10-16.47,28.69,28.69,0,0,1,16.48-5.1h11.68c2.12.16,4.24.63,6.28.63Z"/></g></g></svg>