<svg xmlns="http://www.w3.org/2000/svg" viewBox="0 0 226.47 226.47"><defs><style>.cls-1{fill:#fff;}</style></defs><g id="Layer_2" data-name="Layer 2"><g id="White"><path id="Indeed" class="cls-1" d="M175.64,0H50.83A50.83,50.83,0,0,0,0,50.83V175.64a50.83,50.83,0,0,0,50.83,50.83H175.64a50.83,50.83,0,0,0,50.83-50.83V50.83A50.83,50.83,0,0,0,175.64,0ZM86.29,170.07H62.76V94.13H86.29ZM74.76,83.7a13.65,13.65,0,0,1-.08-27.3h.08a13.65,13.65,0,0,1,0,27.3Zm99.93,86.37H151.16V133.35c0-8.78,0-20.16-12.24-20.16s-14.12,9.57-14.12,19.46v37.57H101.27l.08-76.09H124v10.36a24.79,24.79,0,0,1,22.36-12.24c23.53,0,28.31,15.69,28.31,36.16Z"/></g></g></svg>