<svg xmlns="http://www.w3.org/2000/svg" viewBox="0 0 226.47 226.47"><defs><style>.cls-1{fill:#fff;}</style></defs><g id="Layer_2" data-name="Layer 2"><g id="White"><path id="Pinterest" class="cls-1" d="M175.64,0H50.83A50.83,50.83,0,0,0,0,50.83V175.64a50.83,50.83,0,0,0,50.83,50.83H175.64a50.83,50.83,0,0,0,50.83-50.83V50.83A50.83,50.83,0,0,0,175.64,0Zm-26,127.63c-12.55,15.69-32.87,16.55-42.28,7.06a11.44,11.44,0,0,0-1.88-2.75v.94a103.07,103.07,0,0,1-9.65,29.73,91.59,91.59,0,0,1-7.45,11.14,1.06,1.06,0,0,1-1.26.79c-.63-.16-.7-.79-.78-1.34a94.81,94.81,0,0,1-1.26-16.31c0-7.06,1.1-9.49,10.2-47.7a2.63,2.63,0,0,0,0-1.57A26.91,26.91,0,0,1,94.13,89.9c4.08-13,18.91-14,21.5-3.3,1.57,6.67-2.59,15.69-5.89,28.24-2.43,10.67,10.12,18.51,20.79,10.67s13.65-24.32,12.94-36.4c-1.41-24.24-28-29.41-44.79-21.65-19.29,8.94-23.53,32.87-15,43.77,1.1,1.42,2,2.28,1.57,3.69s-1,4.39-1.65,6.59a2.35,2.35,0,0,1-2.79,1.82,2.64,2.64,0,0,1-.66-.25,19.88,19.88,0,0,1-7.84-6,38.2,38.2,0,0,1,0-42.68,51.2,51.2,0,0,1,49.42-21.8,41.88,41.88,0,0,1,38.51,34.59A57.6,57.6,0,0,1,149.67,127.63Z"/></g></g></svg>