<svg xmlns="http://www.w3.org/2000/svg" viewBox="0 0 226.47 226.47"><defs><style>.cls-1{fill:#fff;}</style></defs><g id="Layer_2" data-name="Layer 2"><g id="White"><path id="Snapchat" class="cls-1" d="M175.64,0H50.83A50.83,50.83,0,0,0,0,50.83V175.64a50.83,50.83,0,0,0,50.83,50.83H175.64a50.83,50.83,0,0,0,50.83-50.83V50.83A50.83,50.83,0,0,0,175.64,0Zm-14,162.54h-.54c.54,0,0,0,0,.54-.45.76-1,1.87-2.2,1.65-24.45-4-21.57,6-39.77,11.61-25.26,3-24.6-17.24-50-11.61-.89,1-2.84.81-3.14-.39-.65-2.88-1.47-5.07-2.2-7.53-4.11-2-20.26-2.87-17.17-9.18,3.7-3.48,9.9-3.44,14-7,5.76-4.4,22.69-21.44,11.29-26.83-4.58-1-17.34-5.63-10.27-11.29,4.52-3.26,10.06,2,15.22,0,.9-9.87-2-20,1.64-29.5C83.65,59.55,98,50,112.57,50.44c32.67,1.51,39.83,23.16,36.55,52,4.89,2,10-3.27,14.59-.55,1.68.61,3.84,3,2.67,4.78-2.18,6.44-11.66,5.18-15.38,10.28-1,14.94,16.46,25.58,28.09,29.57C186.16,156,159.69,151.49,161.59,162.54Z"/></g></g></svg>