<svg xmlns="http://www.w3.org/2000/svg" viewBox="0 0 226.47 226.47"><defs><style>.cls-1{fill:#fff;}</style></defs><g id="Layer_2" data-name="Layer 2"><g id="White"><path id="Stripe" class="cls-1" d="M175.64,0H50.83A50.83,50.83,0,0,0,0,50.83V175.64a50.83,50.83,0,0,0,50.83,50.83H175.64a50.83,50.83,0,0,0,50.83-50.83V50.83A50.83,50.83,0,0,0,175.64,0ZM108.25,176a95.63,95.63,0,0,1-37.65-7.85V135.31a86.76,86.76,0,0,0,38.12,11.22c7.61,0,13.18-2,13.18-8.39,0-16.47-52.4-10.28-52.4-48.4,0-24.63,18.67-39.22,46.6-39.22a91,91,0,0,1,34.2,6.27V88.88A77.24,77.24,0,0,0,116,80c-7.22,0-11.69,2.43-11.69,7.85,0,15.45,52.56,8.08,52.32,49C156.65,161.91,136.88,176,108.25,176Z"/></g></g></svg>