<svg xmlns="http://www.w3.org/2000/svg" viewBox="0 0 226.47 226.47"><defs><style>.cls-1{fill:#fff;}</style></defs><g id="Layer_2" data-name="Layer 2"><g id="White"><path id="Twitter" class="cls-1" d="M175.64,0H50.83A50.83,50.83,0,0,0,0,50.83V175.64a50.83,50.83,0,0,0,50.83,50.83H175.64a50.83,50.83,0,0,0,50.83-50.83V50.83A50.83,50.83,0,0,0,175.64,0Zm.86,78.44a50.66,50.66,0,0,1-9.34,8.87.87.87,0,0,0-.39.78,70.76,70.76,0,0,1-.47,11.46,75.75,75.75,0,0,1-6.67,22.9,74,74,0,0,1-13.88,20.32,68.85,68.85,0,0,1-35.38,19.69A77.06,77.06,0,0,1,96,164.18a72.65,72.65,0,0,1-41.11-11.06l-.63-.39A52.06,52.06,0,0,0,79.86,149a51,51,0,0,0,12.23-7,25.8,25.8,0,0,1-23.92-17.88,25.78,25.78,0,0,0,11.06,0,25.72,25.72,0,0,1-16.47-12.32A24.91,24.91,0,0,1,59,98.13a25.41,25.41,0,0,0,11.45,3.14A25.92,25.92,0,0,1,59.85,85.58,25.45,25.45,0,0,1,62.76,67a73.6,73.6,0,0,0,53,27.14,6.87,6.87,0,0,0-.39-2.82,25.73,25.73,0,0,1,43.77-21.5,1.33,1.33,0,0,0,1.34.4,51.72,51.72,0,0,0,15-5.73,26.36,26.36,0,0,1-10.75,14,49.42,49.42,0,0,0,14.36-3.84Z"/></g></g></svg>