<svg xmlns="http://www.w3.org/2000/svg" viewBox="0 0 226.47 226.47"><defs><style>.cls-1{fill:#fff;}</style></defs><g id="Layer_2" data-name="Layer 2"><g id="White"><path id="Vimeo" class="cls-1" d="M175.64,0H50.83A50.83,50.83,0,0,0,0,50.83V175.64a50.83,50.83,0,0,0,50.83,50.83H175.64a50.83,50.83,0,0,0,50.83-50.83V50.83A50.83,50.83,0,0,0,175.64,0ZM171.4,86.29c-1,21.81-40.87,77.19-63.93,77.19q-10.2,0-17.18-18.75c-8.94-32.95-12.94-53.19-20.63-53.19a35.64,35.64,0,0,0-9.1,5.5L55.07,90C69.66,77.19,81.42,65.11,89.27,64.4q13.49-1.65,16.63,18.44c2.67,16.94,6.59,44.32,13.33,44.32,5.26,0,18.12-21.26,18.75-28.95,1.18-11-7.84-11.61-16.47-7.84q8.62-28.08,33-27.61Q172.42,63.3,171.4,86.29Z"/></g></g></svg>