<svg xmlns="http://www.w3.org/2000/svg" viewBox="0 0 226.47 226.47"><defs><style>.cls-1{fill:#fff;}</style></defs><g id="Layer_2" data-name="Layer 2"><g id="White"><path id="Youtube" class="cls-1" d="M69.42,115.63H91.15v6.51H83.31v39.22H76.72V122.14h-7.3Zm34.28,11.84v26.28c-1.33,2-3.06,2.9-3.92,2.9a1.4,1.4,0,0,1-1.49-1.49,16.43,16.43,0,0,1,0-2.43V127.47h-6.2v26.67a17.51,17.51,0,0,0,.55,5.1,3.84,3.84,0,0,0,4,2.59,10,10,0,0,0,7.14-4.24v3.77H110l-.16-33.89Zm8.16-35.22c2,0,3-1.57,3-4.79V73c0-3.22-.94-4.78-3-4.78s-3,1.56-3,4.78V87.46C108.88,90.68,109.82,92.25,111.86,92.25Zm21.65,45.58v13.25a27.68,27.68,0,0,1-.63,6.91,4.94,4.94,0,0,1-4.94,3.84,8.44,8.44,0,0,1-6.43-3.77v3.3h-6.2V115.7h6.2v15.07a8.37,8.37,0,0,1,6.43-3.69,4.94,4.94,0,0,1,4.94,3.84A26.77,26.77,0,0,1,133.51,137.83Zm-6.2-.55c0-3.06-.86-4.63-2.66-4.63a4.44,4.44,0,0,0-3.14,1.49v20.94a4.37,4.37,0,0,0,3.14,1.49c1.8,0,2.66-1.49,2.66-4.62Zm17.34,8.08v6.11c0,3.22,1,4.79,3.14,4.79a2.67,2.67,0,0,0,2.74-2.51,37.48,37.48,0,0,0,0-4.24h6.36v5a9,9,0,0,1-1.41,3.76,8.64,8.64,0,0,1-7.85,3.69,8.94,8.94,0,0,1-7.84-3.53,13.3,13.3,0,0,1-2-7.85V138.61a13.27,13.27,0,0,1,2-7.84,8.83,8.83,0,0,1,7.84-3.53,8.63,8.63,0,0,1,7.38,3.53,13.66,13.66,0,0,1,2,7.84l.07,6.75Zm6.12-4.79v-3.14c.08-3.21-1-4.78-3.06-4.78s-3.14,1.57-3.14,4.78v3.14Zm75.7-89.74V175.64a50.83,50.83,0,0,1-50.83,50.83H50.83A50.83,50.83,0,0,1,0,175.64V50.83A50.83,50.83,0,0,1,50.83,0H175.64A50.83,50.83,0,0,1,226.47,50.83ZM126.92,95.39A3.86,3.86,0,0,0,131,98a10.16,10.16,0,0,0,7.06-3.85V97.9l6.35-.39V62.75h-6.27V89.27c-1.41,2-2.75,3-4,3s-1.33-.47-1.49-1.49a14.09,14.09,0,0,1,0-2.43V62.75h-6.28V90.21A17.75,17.75,0,0,0,126.92,95.39Zm-24.39-21.1v12a13.36,13.36,0,0,0,2,7.84,9.34,9.34,0,0,0,13.11,1.56,9.21,9.21,0,0,0,1.56-1.56,13.58,13.58,0,0,0,2-7.84v-12a13.62,13.62,0,0,0-2-7.85,9.34,9.34,0,0,0-13.11-1.56,9.21,9.21,0,0,0-1.56,1.56A13.45,13.45,0,0,0,102.53,74.29ZM78.44,51.07,82.92,64a113.16,113.16,0,0,1,4.15,14.43V97.27h7.06V78.44l8.32-27.37H95.39L90.6,69.34,85.66,51.07Zm86.29,88.4a110.09,110.09,0,0,0-1.8-24.31A12.94,12.94,0,0,0,151.79,105a346.31,346.31,0,0,0-38.52-1.42A346.22,346.22,0,0,0,74.76,105a12.93,12.93,0,0,0-11.22,10.12,110.09,110.09,0,0,0-1.8,24.31,110.14,110.14,0,0,0,1.8,24.32,13,13,0,0,0,11.14,10.12,345.24,345.24,0,0,0,38.59,1.41,346.3,346.3,0,0,0,38.52-1.41,13,13,0,0,0,11.14-10.12A110.14,110.14,0,0,0,164.73,139.47Z"/></g></g></svg>