<svg xmlns="http://www.w3.org/2000/svg" viewBox="0 0 226.47 226.47"><defs><style>.cls-1{fill:#6e6e6e;}</style></defs><g id="Layer_2" data-name="Layer 2"><g id="Color"><path id="Apple" class="cls-1" d="M175.64,0H50.83A50.83,50.83,0,0,0,0,50.83V175.64a50.83,50.83,0,0,0,50.83,50.83H175.64a50.83,50.83,0,0,0,50.83-50.83V50.83A50.83,50.83,0,0,0,175.64,0ZM112.88,79.78a27.15,27.15,0,0,1,21.49-23.54l2-.7a31.78,31.78,0,0,1,0,4.78,25.11,25.11,0,0,1-23.53,23.54A25.26,25.26,0,0,1,112.88,79.78Zm49.66,61.42c-4.4,11.92-17,31.93-29.42,29.57-8.55-1.65-12.32-6-21.89-4.23-6.74,1.25-9.1,3.84-14.51,4.39A22.27,22.27,0,0,1,77.66,159a83.32,83.32,0,0,1-8.47-15.22A62.73,62.73,0,0,1,65,105.11,30.2,30.2,0,0,1,84.88,83.54a36,36,0,0,1,26.75,3c4.39,1.26,7.84-.62,13.1-2.59A31.39,31.39,0,0,1,160,93.35c-18.13,12.94-17.5,35.22,3.13,46C163.16,139.86,163.08,139.86,162.54,141.2Z"/></g></g></svg>