<svg xmlns="http://www.w3.org/2000/svg" viewBox="0 0 226.47 226.47"><defs><style>.cls-1{fill:#2a5afc;}</style></defs><g id="Layer_2" data-name="Layer 2"><g id="Color"><path id="Behance" class="cls-1" d="M99.94,127.24a16.51,16.51,0,0,1,0,4.55,9.11,9.11,0,0,1-7.85,7.37,28.89,28.89,0,0,1-5.17.55H69.42V118.37H88.09a17.88,17.88,0,0,1,5.89,1A8.55,8.55,0,0,1,99.94,127.24Zm-5-24.32a6.54,6.54,0,0,0,3.37-4.24,12.42,12.42,0,0,0,0-4.86,6.74,6.74,0,0,0-5.18-6,30.5,30.5,0,0,0-7.84-1H69.58l-.16,17.88H87.07A16.18,16.18,0,0,0,94.92,102.92ZM158,105.43a14.87,14.87,0,0,0-6.83-.94,11.28,11.28,0,0,0-10.27,7.06,30.13,30.13,0,0,0-1.26,3.68,12.34,12.34,0,0,0,0,1.49l25.73-.23v-1.65A11.6,11.6,0,0,0,158,105.43Zm68.48-54.6V175.64a50.83,50.83,0,0,1-50.83,50.83H50.83A50.83,50.83,0,0,1,0,175.64V50.83A50.83,50.83,0,0,1,50.83,0H175.64A50.83,50.83,0,0,1,226.47,50.83Zm-90.68,34.6,32.63-.08V76H135.79Zm-19.06,38.43A17.57,17.57,0,0,0,105.43,110h-.71l1.57-.86a15.2,15.2,0,0,0,7.14-7.85,22.58,22.58,0,0,0,.94-11.06,18.33,18.33,0,0,0-11.29-15,30.81,30.81,0,0,0-12.56-2.51H50.68v80.56H87.07a62,62,0,0,0,10.36-.86,22.59,22.59,0,0,0,17.33-12.87A24.42,24.42,0,0,0,116.73,123.86Zm64.16,2.51v-8.7a28.46,28.46,0,0,0-2.67-11.54,24.29,24.29,0,0,0-12.55-12.08,33.52,33.52,0,0,0-19.22-1.88,25.35,25.35,0,0,0-20.94,18.36,43.73,43.73,0,0,0-.94,22.59,22.74,22.74,0,0,0,5.65,11.29,29.52,29.52,0,0,0,13.49,7.85,35.5,35.5,0,0,0,15.14.78,26,26,0,0,0,16.39-8.63,20.52,20.52,0,0,0,4.63-7.84,3.4,3.4,0,0,0,.55-2.27H165.05a.79.79,0,0,0-.79.47,11.14,11.14,0,0,1-7.84,5.88,17.49,17.49,0,0,1-7.06,0,12.41,12.41,0,0,1-9.34-6.9,15.47,15.47,0,0,1-1.33-4.71v-2.51h42.36C181.13,126.37,181.13,126.22,180.89,126.37Z"/></g></g></svg>