<svg xmlns="http://www.w3.org/2000/svg" viewBox="0 0 226.47 226.47"><defs><style>.cls-1{fill:#f25b98;}</style></defs><g id="Layer_2" data-name="Layer 2"><g id="Color"><path id="Dribbble" class="cls-1" d="M64.48,100.8a50.29,50.29,0,0,1,26.2-32.28,157.9,157.9,0,0,1,19.14,26.79A161.29,161.29,0,0,1,64.48,100.8Zm36,33.1a77.51,77.51,0,0,0-17.26,19.69,50.05,50.05,0,0,0,48,6.28,167,167,0,0,0-9-37.73A67.06,67.06,0,0,0,100.49,133.9ZM120,91.54a61.89,61.89,0,0,0,24.59-17.29,50.08,50.08,0,0,0-43.42-9.93,169.78,169.78,0,0,1,15.69,21.89Zm-25.89,34a77.89,77.89,0,0,1,24-13.26q-1.73-3.77-3.45-7.29a134,134,0,0,1-17.89,4.23,181,181,0,0,1-29.49,2.36H62.76v1.72a50,50,0,0,0,12.78,32.87A88.46,88.46,0,0,1,94.13,125.51ZM226.47,50.83V175.64a50.83,50.83,0,0,1-50.83,50.83H50.83A50.83,50.83,0,0,1,0,175.64V50.83A50.83,50.83,0,0,1,50.83,0H175.64A50.83,50.83,0,0,1,226.47,50.83Zm-52.4,62.36a60.8,60.8,0,1,0-60.8,60.8A60.88,60.88,0,0,0,174.07,113.19Zm-40.71,6.52a178.22,178.22,0,0,1,8,34.75l.31.07A50.12,50.12,0,0,0,163.09,121,82.61,82.61,0,0,0,133.36,119.71ZM152.5,82.13a73.36,73.36,0,0,1-27.3,19.3c1.33,2.66,2.59,5.49,3.84,8.39a91.48,91.48,0,0,1,34.2.39A50,50,0,0,0,152.5,82.05Z"/></g></g></svg>