<svg xmlns="http://www.w3.org/2000/svg" viewBox="0 0 226.47 226.47"><defs><style>.cls-1{fill:#3692fb;}</style></defs><g id="Layer_2" data-name="Layer 2"><g id="Color"><path id="Facebook_Messenger" data-name="Facebook Messenger" class="cls-1" d="M122.77,109.59l30.59-17L119.47,129l-15.69-17L72.4,129l34.13-36.4Zm103.7-58.76V175.64a50.83,50.83,0,0,1-50.83,50.83H50.83A50.83,50.83,0,0,1,0,175.64V50.83A50.83,50.83,0,0,1,50.83,0H175.64A50.83,50.83,0,0,1,226.47,50.83ZM176,108.57a60.4,60.4,0,0,0-62.67-58h0a60.41,60.41,0,0,0-62.75,58v.16a56.58,56.58,0,0,0,23.53,45.27V176l21.26-11.77a66.31,66.31,0,0,0,17.89,2.43,60.38,60.38,0,0,0,62.74-58Z"/></g></g></svg>