<svg xmlns="http://www.w3.org/2000/svg" xmlns:xlink="http://www.w3.org/1999/xlink" viewBox="0 0 226.47 226.47"><defs><style>.cls-1{fill:url(#linear-gradient);}</style><linearGradient id="linear-gradient" y1="113.23" x2="226.47" y2="113.23" gradientUnits="userSpaceOnUse"><stop offset="0" stop-color="#0062dd"/><stop offset="1" stop-color="#ff0084"/></linearGradient></defs><g id="Layer_2" data-name="Layer 2"><g id="Color"><path id="Flickr" class="cls-1" d="M175.64,0H50.83A50.83,50.83,0,0,0,0,50.83V175.64a50.83,50.83,0,0,0,50.83,50.83H175.64a50.83,50.83,0,0,0,50.83-50.83V50.83A50.83,50.83,0,0,0,175.64,0ZM80.09,139a25.73,25.73,0,1,1,25.73-25.73A25.73,25.73,0,0,1,80.09,139Zm66.29,0a25.73,25.73,0,1,1,25.73-25.73A25.73,25.73,0,0,1,146.38,139Z"/></g></g></svg>