<svg xmlns="http://www.w3.org/2000/svg" viewBox="0 0 226.47 226.47"><defs><style>.cls-1{fill:#00aff0;}</style></defs><g id="Layer_2" data-name="Layer 2"><g id="Color"><path id="Skype" class="cls-1" d="M175.64,0H50.83A50.83,50.83,0,0,0,0,50.83V175.64a50.83,50.83,0,0,0,50.83,50.83H175.64a50.83,50.83,0,0,0,50.83-50.83V50.83A50.83,50.83,0,0,0,175.64,0Zm-.08,141.67h0a34.44,34.44,0,0,1-34.67,34.2,35.75,35.75,0,0,1-16.4-5,61.29,61.29,0,0,1-11,1A58.11,58.11,0,0,1,54.91,102a33.77,33.77,0,0,1-4.39-17.26v-.08A34.43,34.43,0,0,1,85.27,50.52a34.8,34.8,0,0,1,18.43,5.25,61.15,61.15,0,0,1,10.2-.86h.16a58.83,58.83,0,0,1,58.52,71.62A33.73,33.73,0,0,1,175.56,141.67Zm-33-23.61a17.5,17.5,0,0,1,2,8.71A18.92,18.92,0,0,1,141.2,138a22.63,22.63,0,0,1-10.12,7.85,40.83,40.83,0,0,1-15.69,2.82,38.12,38.12,0,0,1-18.12-3.84,23.61,23.61,0,0,1-7.84-7.3,15.63,15.63,0,0,1-3.14-8.94,5.74,5.74,0,0,1,1.88-4.32,6.79,6.79,0,0,1,4.87-1.8,6,6,0,0,1,4,1.41A10.87,10.87,0,0,1,99.86,128a26.24,26.24,0,0,0,3.06,5.41,12,12,0,0,0,4.63,3.61,18.34,18.34,0,0,0,7.84,1.41,18.81,18.81,0,0,0,10.12-3,8.46,8.46,0,0,0,4.16-7.14,7.22,7.22,0,0,0-2.28-5.49,14.61,14.61,0,0,0-5.8-3.21c-2.35-.74-5.54-1.52-9.57-2.36a73.93,73.93,0,0,1-13.34-4A21.45,21.45,0,0,1,90.13,107a16.74,16.74,0,0,1,.24-19.85A20.87,20.87,0,0,1,100,80.4a42.68,42.68,0,0,1,14.82-2.35,40.22,40.22,0,0,1,11.85,1.57,25.77,25.77,0,0,1,8.23,4.16,17.37,17.37,0,0,1,4.79,5.41,11.76,11.76,0,0,1,1.49,5.49,6.59,6.59,0,0,1-6.59,6.43,5.8,5.8,0,0,1-3.92-1.17,15.45,15.45,0,0,1-2.9-3.92,17.87,17.87,0,0,0-4.87-6,15.14,15.14,0,0,0-9.1-2.19,16.64,16.64,0,0,0-9.41,2.35,6.75,6.75,0,0,0-3.53,5.65,5.49,5.49,0,0,0,1.18,3.53,9.83,9.83,0,0,0,3.37,2.59,24.71,24.71,0,0,0,4.31,1.65l7.22,1.72a114,114,0,0,1,11.37,3,36.74,36.74,0,0,1,8.63,3.92A16.81,16.81,0,0,1,142.53,118.06Z"/></g></g></svg>