<svg xmlns="http://www.w3.org/2000/svg" viewBox="0 0 226.47 226.47"><defs><style>.cls-1{fill:#f50;}</style></defs><g id="Layer_2" data-name="Layer 2"><g id="Color"><path id="Soundcloud" class="cls-1" d="M175.64,0H50.83A50.83,50.83,0,0,0,0,50.83V175.64a50.83,50.83,0,0,0,50.83,50.83H175.64a50.83,50.83,0,0,0,50.83-50.83V50.83A50.83,50.83,0,0,0,175.64,0ZM52,133.35v.55c-.79,0-.79,0-.79-.55l-.78-6.74.78-7.85H52l1.49,7.85Zm5.25,4.32H55.7l-.79-11.3.86-11.29a.82.82,0,0,1,0-.49.78.78,0,0,1,1-.5.77.77,0,0,1,.5,1l.79,11.29Zm4.48,1.49c0,.78,0,.78-.79.78v-.78l-1.49-12.79L61,112.88v-.78c.79,0,.79,0,.79.78l1.49,13.49Zm5.33.71V140a.7.7,0,0,1-.78.62l-.79-.78-.78-13.5.78-14.27.79-.79h.16a.71.71,0,0,1,.62.79l1.49,14.27Zm5.26,0V140a.71.71,0,0,1-.79.62c-.94,0-.94,0-.94-.71l-1.33-13.57,1.49-12.78c0-.79,0-.79.78-.79h.17a.72.72,0,0,1,.62.79l1.49,12.78Zm5.33,0V140a.7.7,0,0,1-.78.62c-.71,0-1.49,0-1.49-.79l-.79-13.49.79-21c0-.78.7-.78,1.49-.78H77a.69.69,0,0,1,.62.78l.78,21Zm5.1,0c0,.78-.71.78-1.49.78H81.1a.71.71,0,0,1-.62-.78l-.78-13.5.78-26.28.79-.78a2.61,2.61,0,0,1,1.49.78l.78,26.28Zm5,0c0,.78-.71.78-1.49.78s-.79,0-.79-.78l-.78-13.5L85.5,98.6c0-.7,0-1.49.79-1.49a1.65,1.65,0,0,1,1.49,1.49l.78,27.77Zm5.57,0c0,.78-.71.78-1.49.78s-1.57,0-1.49-.78l-.79-13.5L90.37,97c0-.78.78-.78,1.49-.78s1.49,0,1.49.78l.78,29.34Zm5.25-.71a1.49,1.49,0,0,1-3,0l-.78-12.79.78-28.55a1.49,1.49,0,1,1,3,0l.79,28.55Zm5.18,0a1.49,1.49,0,1,1-3,0L100,126.37l.78-27.06a1.49,1.49,0,1,1,3,0l.79,27.06Zm5.34,0a1.49,1.49,0,0,1-3,.08l-.79-12.79.79-32.32a1.49,1.49,0,0,1,3,0l.78,32.24Zm5.25,0a1.49,1.49,0,0,1-3,0l-.78-12.79.78-35.3a1.49,1.49,0,0,1,3,0l.79,35.3Zm46.6,1.49H118.14c-1.49,0-2.28-.71-2.28-1.49V89.58c0-1.49.71-1.49,1.49-2.27a43.92,43.92,0,0,1,10.51-1.49,27.62,27.62,0,0,1,27.07,24.79,14.57,14.57,0,0,1,6-.79h.32A15.22,15.22,0,0,1,176,125.51v.08A15.06,15.06,0,0,1,161,140.65Z"/></g></g></svg>