<svg xmlns="http://www.w3.org/2000/svg" viewBox="0 0 226.47 226.47"><defs><style>.cls-1{fill:#fd3832;}</style></defs><g id="Layer_2" data-name="Layer 2"><g id="Color"><path id="Youtube" class="cls-1" d="M97.51,91.39l39.22,20.55L97.51,132.33Zm129-40.56V175.64a50.83,50.83,0,0,1-50.83,50.83H50.83A50.83,50.83,0,0,1,0,175.64V50.83A50.83,50.83,0,0,1,50.83,0H175.64A50.83,50.83,0,0,1,226.47,50.83ZM173.2,80.56a15.22,15.22,0,0,0-9.57-9.18c-7.76-2.82-75.38-3.13-97.27-.78A15.65,15.65,0,0,0,55.7,75.93c-8.16,9.57-6.91,58-2.67,69.66a14.72,14.72,0,0,0,9.73,9.49c10.82,3.53,94.83,3.61,103-.47a14.83,14.83,0,0,0,6.83-6.9C178,136.18,177.83,92.56,173.2,80.56Z"/></g></g></svg>