<svg xmlns="http://www.w3.org/2000/svg" viewBox="0 0 226.47 226.47"><defs><style>.cls-1{fill:none;}.cls-2{fill:#fff;}</style></defs><g id="Layer_2" data-name="Layer 2"><g id="Logo_Only_White" data-name="Logo Only White"><g id="Behance"><rect class="cls-1" width="226.47" height="226.47"/><path id="Behance-2" data-name="Behance" class="cls-2" d="M168.42,85.35l-32.63.08V76h32.63Zm-51.7,38.51a24.35,24.35,0,0,1-2,15.69,22.59,22.59,0,0,1-17.33,12.87,62,62,0,0,1-10.36.86H50.67V72.72H90.52a30.73,30.73,0,0,1,12.55,2.51,18.33,18.33,0,0,1,11.3,15,22.58,22.58,0,0,1-.94,11.06,15.25,15.25,0,0,1-7.14,7.85l-1.57.86h.71A17.56,17.56,0,0,1,116.72,123.86Zm-47.3-19.22H87.07a16.18,16.18,0,0,0,7.85-1.72,6.54,6.54,0,0,0,3.37-4.24,12.42,12.42,0,0,0,0-4.86,6.74,6.74,0,0,0-5.18-6,30.5,30.5,0,0,0-7.84-1H69.58Zm30.52,22.6a8.55,8.55,0,0,0-6-7.85,17.88,17.88,0,0,0-5.89-1H69.42v21.34h17.5a29,29,0,0,0,5.17-.55,9.11,9.11,0,0,0,7.85-7.37A16.51,16.51,0,0,0,99.94,127.24Zm38.75-.71V129a15.47,15.47,0,0,0,1.33,4.71,12.41,12.41,0,0,0,9.34,6.9,17.49,17.49,0,0,0,7.06,0,11.14,11.14,0,0,0,7.84-5.88.79.79,0,0,1,.79-.47h15.37a3.4,3.4,0,0,1-.55,2.27,20.52,20.52,0,0,1-4.63,7.84A26,26,0,0,1,158.85,153a35.5,35.5,0,0,1-15.14-.78,29.52,29.52,0,0,1-13.49-7.85,22.74,22.74,0,0,1-5.65-11.29,43.73,43.73,0,0,1,.94-22.59,25.35,25.35,0,0,1,20.94-18.36,33.52,33.52,0,0,1,19.22,1.88,24.29,24.29,0,0,1,12.55,12.08,28.46,28.46,0,0,1,2.67,11.54v8.7c.24-.15.24,0,.16.16Zm.94-9.81,25.73-.23v-1.65a11.6,11.6,0,0,0-7.37-9.41,14.87,14.87,0,0,0-6.83-.94,11.28,11.28,0,0,0-10.27,7.06,30.13,30.13,0,0,0-1.26,3.68A12.34,12.34,0,0,0,139.63,116.72Z"/></g></g></g></svg>