<svg xmlns="http://www.w3.org/2000/svg" viewBox="0 0 226.47 226.47"><defs><style>.cls-1{fill:none;}.cls-2{fill:#fff;}</style></defs><g id="Layer_2" data-name="Layer 2"><g id="Logo_Only_White" data-name="Logo Only White"><g id="Blogger"><rect class="cls-1" width="226.47" height="226.47"/><path id="Blogger-2" data-name="Blogger" class="cls-2" d="M162,100.64c-2.59-.31-5,0-10.44-.78s-4-8-6.12-16.47a34.64,34.64,0,0,0-22.82-22.2,128.66,128.66,0,0,0-37.89,0A33.88,33.88,0,0,0,59.93,93.43v41.73A33.74,33.74,0,0,0,80.33,164,30,30,0,0,0,92,166.69v-.15h43.46a33.92,33.92,0,0,0,27.93-19.93c3.14-6.67,3.14-10.12,3.14-40.4A5.27,5.27,0,0,0,162,100.64Zm-68.33-13h18.2a6.32,6.32,0,0,1,1.55-.23,6.43,6.43,0,1,1,.33,12.86c-1.57.24-19.61.08-19.61.08a6.36,6.36,0,1,1-.47-12.71Zm37.58,51.22H94.13a6.35,6.35,0,1,1,.24-12.7h36.87a6.35,6.35,0,0,1,0,12.7Z"/></g></g></g></svg>