<svg xmlns="http://www.w3.org/2000/svg" viewBox="0 0 226.47 226.47"><defs><style>.cls-1{fill:none;}.cls-2{fill:#fff;}</style></defs><g id="Layer_2" data-name="Layer 2"><g id="Logo_Only_White" data-name="Logo Only White"><g id="Google_Plus" data-name="Google Plus"><rect class="cls-1" width="226.47" height="226.47"/><path id="Google_Plus-2" data-name="Google Plus" class="cls-2" d="M141.2,104.41a51.6,51.6,0,0,1-8.79,40.24,41.86,41.86,0,0,1-23.53,15.69,51.22,51.22,0,0,1-15.69,1.57,47.09,47.09,0,0,1-25.65-9.1A47.63,47.63,0,0,1,48.71,124.1a45.81,45.81,0,0,1-1-12.95A48.18,48.18,0,0,1,84.17,67.23,37.16,37.16,0,0,1,92,66h4.63a45.8,45.8,0,0,1,22.83,6.2A59.59,59.59,0,0,1,128,78.44L113.74,92.17a26,26,0,0,0-14.12-6.82,28.38,28.38,0,0,0-31.37,22.12,27.11,27.11,0,0,0-.55,8.71,29,29,0,0,0,19.84,25,28.25,28.25,0,0,0,10.36,1.49,27.68,27.68,0,0,0,14-4.47,21.9,21.9,0,0,0,9.49-14.44H95.62V104.41Zm57.89.63H182.77V88.33h-13.1V105H152.89v13.18h16.78V135h13.1V118.22h16.79V105Z"/></g></g></g></svg>