<svg xmlns="http://www.w3.org/2000/svg" viewBox="0 0 226.47 226.47"><defs><style>.cls-1{fill:none;}.cls-2{fill:#fff;}</style></defs><g id="Layer_2" data-name="Layer 2"><g id="Logo_Only_White" data-name="Logo Only White"><g id="Skype"><rect class="cls-1" width="226.47" height="226.47"/><path id="Skype-2" data-name="Skype" class="cls-2" d="M172.58,126.53a58.83,58.83,0,0,0-58.52-71.62h-.16a61.15,61.15,0,0,0-10.2.86,34.8,34.8,0,0,0-18.43-5.25A34.43,34.43,0,0,0,50.52,84.64v.08A33.77,33.77,0,0,0,54.91,102a58.11,58.11,0,0,0,58.6,69.89,61.29,61.29,0,0,0,11-1,35.75,35.75,0,0,0,16.4,5,34.44,34.44,0,0,0,34.67-34.2h0A33.73,33.73,0,0,0,172.58,126.53ZM141.2,138a22.63,22.63,0,0,1-10.12,7.85,40.83,40.83,0,0,1-15.69,2.82,38.12,38.12,0,0,1-18.12-3.84,23.52,23.52,0,0,1-7.84-7.3,15.63,15.63,0,0,1-3.14-8.94,5.74,5.74,0,0,1,1.88-4.32,6.78,6.78,0,0,1,4.86-1.8,5.94,5.94,0,0,1,4,1.41A10.79,10.79,0,0,1,99.86,128a26.24,26.24,0,0,0,3.06,5.41,12,12,0,0,0,4.63,3.61,18.31,18.31,0,0,0,7.84,1.41,18.81,18.81,0,0,0,10.12-3,8.48,8.48,0,0,0,4.16-7.14,7.25,7.25,0,0,0-2.28-5.49,14.61,14.61,0,0,0-5.8-3.21c-2.36-.74-5.55-1.52-9.57-2.36a73.93,73.93,0,0,1-13.34-4A21.45,21.45,0,0,1,90.13,107a16.74,16.74,0,0,1,.24-19.85A20.87,20.87,0,0,1,100,80.4a42.68,42.68,0,0,1,14.82-2.35,40.22,40.22,0,0,1,11.85,1.57,25.77,25.77,0,0,1,8.23,4.16,17.37,17.37,0,0,1,4.79,5.41,11.76,11.76,0,0,1,1.49,5.49,6.59,6.59,0,0,1-6.59,6.43,5.8,5.8,0,0,1-3.92-1.17A15.73,15.73,0,0,1,127.78,96a17.73,17.73,0,0,0-4.86-6,15.14,15.14,0,0,0-9.1-2.19,16.62,16.62,0,0,0-9.41,2.35,6.75,6.75,0,0,0-3.53,5.65,5.44,5.44,0,0,0,1.18,3.53,9.83,9.83,0,0,0,3.37,2.59,24.71,24.71,0,0,0,4.31,1.65l7.22,1.72a114.72,114.72,0,0,1,11.37,3,36.74,36.74,0,0,1,8.63,3.92,16.81,16.81,0,0,1,5.57,5.89,17.61,17.61,0,0,1,2,8.71A18.92,18.92,0,0,1,141.2,138Z"/></g></g></g></svg>