<svg xmlns="http://www.w3.org/2000/svg" viewBox="0 0 226.47 226.47"><defs><style>.cls-1{fill:none;}.cls-2{fill:#fff;}</style></defs><g id="Layer_2" data-name="Layer 2"><g id="Logo_Only_White" data-name="Logo Only White"><g id="Slack"><rect class="cls-1" width="226.47" height="226.47"/><path id="Slack-2" data-name="Slack" class="cls-2" d="M176,116.72v-.47A10.82,10.82,0,0,0,165.52,109a11.39,11.39,0,0,0-3.53.62l-12.4,4.16-7.84-23.53,11.61-4a10.74,10.74,0,0,0,7.84-12.71v-.47a10.75,10.75,0,0,0-10.43-7.3,12.31,12.31,0,0,0-3.3.48l-12.23,4.07-4.08-12.08a11.11,11.11,0,1,0-21.34,6.2V65L113.9,77,90.37,84.88l-4.08-12A11,11,0,0,0,75.78,65a11.17,11.17,0,0,0-3.45.55,11,11,0,0,0-6.91,13.88l4.08,12-11.92,4a10.89,10.89,0,0,0-7.06,13.33v.47a10.43,10.43,0,0,0,10.2,7.14,11.65,11.65,0,0,0,3.6-.63l11.85-4.08L84,135.24l-11.84,4a11,11,0,0,0-7.06,13.49v.47a10.44,10.44,0,0,0,10.2,7.06,12,12,0,0,0,3.76-.63l11.61-4,4.16,12.24a10.91,10.91,0,1,0,20.79-6.59L112,149l23.53-7.84,4.24,12.47a11,11,0,0,0,20.94-6.74l-4.23-12.56,13-4.47a14.91,14.91,0,0,0,5.33-3.76A11.31,11.31,0,0,0,176,116.72Zm-70.6,12.08-7.84-23.53L121,97.43,128.88,121Z"/></g></g></g></svg>