<svg xmlns="http://www.w3.org/2000/svg" viewBox="0 0 226.47 226.47"><defs><style>.cls-1{fill:none;}.cls-2{fill:#fff;}</style></defs><g id="Layer_2" data-name="Layer 2"><g id="Logo_Only_White" data-name="Logo Only White"><g id="Viber"><rect class="cls-1" width="226.47" height="226.47"/><path id="Viber-2" data-name="Viber" class="cls-2" d="M171.24,80.64A41.89,41.89,0,0,0,143,53.42a156.85,156.85,0,0,0-59.14,0A41.89,41.89,0,0,0,54.91,80.48a115.63,115.63,0,0,0,0,49.82,42.21,42.21,0,0,0,26.67,26.82v13.26a5.34,5.34,0,0,0,9.18,3.69l13.41-13.89h8.71a157.66,157.66,0,0,0,29.57-2.82,41.89,41.89,0,0,0,28.24-27.22A115.74,115.74,0,0,0,171.24,80.64ZM160.65,128.1v-.39a31.4,31.4,0,0,1-19.92,19.14,146.77,146.77,0,0,1-31.38,2.51.66.66,0,0,0-.55,0L98.92,160,88.48,170.69a1.25,1.25,0,0,1-2.11-.86V148a.8.8,0,0,0-.63-.71A31.39,31.39,0,0,1,65.81,128.1a105.2,105.2,0,0,1,0-45A31.39,31.39,0,0,1,85.74,63.93a146.12,146.12,0,0,1,54.91,0,31.38,31.38,0,0,1,19.92,19.14A104.73,104.73,0,0,1,160.65,128.1Zm-20.86-3.85a4,4,0,0,1,.94,4.95,16.92,16.92,0,0,1-7.3,7.84,17.19,17.19,0,0,1-3.14,1c-1.17-.39-2.35-.63-3.45-1.1A78.92,78.92,0,0,1,97.11,117,77.39,77.39,0,0,1,85.74,99.62c-1.41-3-2.67-6-3.92-9.1a7.82,7.82,0,0,1,2.35-7.84,18.41,18.41,0,0,1,6.12-4.63,3.92,3.92,0,0,1,4.94,1.18,63,63,0,0,1,7.84,10.67,5.09,5.09,0,0,1-1.41,6.9L100,98.05a5.35,5.35,0,0,0-1.26,1.34,3.54,3.54,0,0,0,0,3.14,28.42,28.42,0,0,0,15.69,17.65,8,8,0,0,0,4.08,1c2.43-.32,3.29-3.06,5-4.48a4.82,4.82,0,0,1,5.73,0c1.88,1.18,3.6,2.44,5.41,3.69S138.15,122.89,139.79,124.25Zm-7.61-21.1a17.86,17.86,0,0,0-2-8.63,16.7,16.7,0,0,0-7-6.51,20.05,20.05,0,0,0-5.56-1.72l-2.83-.47-.17,0A1.57,1.57,0,0,1,113.35,84v-.16a1.58,1.58,0,0,1,1.72-1.41A23.2,23.2,0,0,1,124.73,85a19.5,19.5,0,0,1,10.59,15.14v3.46a8.68,8.68,0,0,1,0,1,1.66,1.66,0,0,1-1.07,1.06,1.64,1.64,0,0,1-2.07-1.06A4.23,4.23,0,0,1,132.18,103.15Zm-7.93-1.88a18.43,18.43,0,0,0,0-2.35,6.59,6.59,0,0,0-2.43-3.85,6.45,6.45,0,0,0-2-.94,6.87,6.87,0,0,0-2.74-.39h-.06a1.66,1.66,0,0,1-1.28-2,1.8,1.8,0,0,1,1.89-1.41h.07a10.11,10.11,0,0,1,10,10.19,4.23,4.23,0,0,1,0,1.42,1.47,1.47,0,0,1-1.64,1.09h-.08A1.81,1.81,0,0,1,124.25,101.27Zm19.14,5.49,0,.27a1.72,1.72,0,0,1-1.67,1.77c-1.18,0-1.65.08-1.81-2s-.55-4.23-.55-6.27a26.28,26.28,0,0,0-21.18-22c-1.56-.55-3.84-.39-4.94-.55s-2.66-.15-2.66-1.49l0-.25a1.81,1.81,0,0,1,1.82-1.79h.86a29.9,29.9,0,0,1,29.34,24.48A27.86,27.86,0,0,1,143.39,106.76Z"/></g></g></g></svg>