<svg xmlns="http://www.w3.org/2000/svg" viewBox="0 0 226.47 226.47"><defs><style>.cls-1{fill:none;}.cls-2{fill:#fff;}</style></defs><g id="Layer_2" data-name="Layer 2"><g id="Logo_Only_White" data-name="Logo Only White"><g id="Vine"><rect class="cls-1" width="226.47" height="226.47"/><path id="Vine-2" data-name="Vine" class="cls-2" d="M166,85a52.56,52.56,0,0,1-3.92,17.26A15.15,15.15,0,0,1,145,97.66a2.05,2.05,0,0,1,0-1.25,35,35,0,0,0,.55-20.79c-3-7.69-16.08-7.77-15.06,11.3a27.06,27.06,0,0,0,33.81,26.59l-.16,14.2A87.51,87.51,0,0,1,152.34,129a1.18,1.18,0,0,0-1.1.79,122.5,122.5,0,0,1-33.57,42,10.44,10.44,0,0,1-9.42,1.34,20.54,20.54,0,0,1-5.57-3.22c-33.81-26.28-41.1-91.39-42.43-97.66H79.93c4.4,30.51,11.46,57.26,31.38,81.42.71.71.71.71,1.41,0a116.8,116.8,0,0,0,19.93-28.16c.63-.47.47-1,0-1a39.19,39.19,0,0,1-16.08-16.79,49.69,49.69,0,0,1-4.32-32.47,26.61,26.61,0,0,1,23-22C153,50.75,167.24,61.5,166,85Z"/></g></g></g></svg>