<svg xmlns="http://www.w3.org/2000/svg" viewBox="0 0 226.47 226.47"><defs><style>.cls-1{fill:none;}.cls-2{fill:#fff;}</style></defs><g id="Layer_2" data-name="Layer 2"><g id="Logo_Only_White" data-name="Logo Only White"><g id="Yahoo"><rect class="cls-1" width="226.47" height="226.47"/><path id="Yahoo-2" data-name="Yahoo" class="cls-2" d="M164.34,94.13,152.1,95.47h-4l-22.83,20.39-7.13,6.28v.55c-.47,6.74-.47,13.41-.47,20.16l.07,1.25,14.44.55h2.43v6h-54l-.47-.55v-5.33l.55-.55,9.25-.71,7.85-.63V122.84L80.09,101.51,66.83,85.27l-.94-.47L50.6,83.7,49.89,83V76.87l.47-.62h54.91l.47.62-.7,6.36-.47.47-7.46.55-7,.63,4.24,5.25c6,7.61,12.16,14.75,18.2,22.59h1l21.18-18,.7-.63h-.55l-12-.94h-4l-.47-.47V86.37l.47-.47h6.59l31.85-.55h6.9l.47.47v7.53Zm4,44-3-.24-2.59-.15-1.8-.16-.08.08.23,3.29.32,3.38.23.23h7.22l.23-.23v-6l-.23-.15Zm6.9-35.93-2.59-.08-4.07-.23-2.28-.08-3.45-.31-.08.31-.16,4.16-.07,5.88-.16,6-.08,6-.16,5.5-.08,1.8v2l.24.16h.31l5.57.63.24-.16,3.92-15.85,3.3-14.2.39-1.25v-.08Z"/></g></g></g></svg>