<svg xmlns="http://www.w3.org/2000/svg" viewBox="0 0 226.47 226.47"><defs><style>.cls-1{fill:none;}.cls-2{fill:#fff;}</style></defs><g id="Layer_2" data-name="Layer 2"><g id="Logo_Only_White" data-name="Logo Only White"><g id="Youtube"><rect class="cls-1" width="226.47" height="226.47"/><path id="Youtube-2" data-name="Youtube" class="cls-2" d="M173.2,80.56a15.22,15.22,0,0,0-9.57-9.18c-7.76-2.82-75.38-3.13-97.27-.78A15.65,15.65,0,0,0,55.7,75.93c-8.16,9.57-6.91,58-2.67,69.66a14.72,14.72,0,0,0,9.73,9.49c10.82,3.53,94.83,3.61,103-.47a14.83,14.83,0,0,0,6.83-6.9C178,136.18,177.83,92.56,173.2,80.56ZM97.51,132.33V91.39l39.22,20.55Z"/></g></g></g></svg>