<svg xmlns="http://www.w3.org/2000/svg" viewBox="0 0 226.47 226.47"><defs><style>.cls-1{fill:none;}.cls-2{fill:#fff;}</style></defs><g id="Layer_2" data-name="Layer 2"><g id="Logo_Only_White" data-name="Logo Only White"><g id="Youtube"><rect class="cls-1" width="226.47" height="226.47"/><path id="Youtube-2" data-name="Youtube" class="cls-2" d="M144.41,62.75V97.51l-6.35.39V94.13A10.16,10.16,0,0,1,131,98a3.86,3.86,0,0,1-4.08-2.59,17.75,17.75,0,0,1-.55-5.18V62.75h6.28V88.33a14.09,14.09,0,0,0,0,2.43c.16,1,.23,1.49,1.49,1.49s2.59-1,4-3V62.75ZM121.12,74.29v12a13.58,13.58,0,0,1-2,7.84,9.21,9.21,0,0,1-1.56,1.56,9.34,9.34,0,0,1-13.11-1.56,13.36,13.36,0,0,1-2-7.84v-12a13.45,13.45,0,0,1,2-7.85,9.21,9.21,0,0,1,1.56-1.56,9.34,9.34,0,0,1,13.11,1.56A13.62,13.62,0,0,1,121.12,74.29ZM114.84,73c0-3.22-.94-4.78-3-4.78s-3,1.56-3,4.78V87.46c0,3.22.94,4.79,3,4.79s3-1.57,3-4.79ZM90.6,69.34,85.66,51.07H78.44L82.92,64a113.16,113.16,0,0,1,4.15,14.43V97.27h7.06V78.44l8.32-27.37H95.39Zm60.17,68.09c.08-3.21-1-4.78-3.06-4.78s-3.14,1.57-3.14,4.78v3.14h6.2Zm-26.12-4.78a4.44,4.44,0,0,0-3.14,1.49v20.94a4.37,4.37,0,0,0,3.14,1.49c1.8,0,2.66-1.49,2.66-4.62V137.28C127.31,134.22,126.45,132.65,124.65,132.65Zm40.08,6.82a110.14,110.14,0,0,1-1.8,24.32,13,13,0,0,1-11.14,10.12,346.3,346.3,0,0,1-38.52,1.41,345.24,345.24,0,0,1-38.59-1.41,13,13,0,0,1-11.14-10.12,110.14,110.14,0,0,1-1.8-24.32,110.09,110.09,0,0,1,1.8-24.31A12.93,12.93,0,0,1,74.76,105a346.22,346.22,0,0,1,38.51-1.42A346.31,346.31,0,0,1,151.79,105a12.94,12.94,0,0,1,11.14,10.12A110.09,110.09,0,0,1,164.73,139.47ZM91.15,115.63H69.42v6.51h7.3v39.22h6.59V122.14h7.84ZM110,161.36l-.16-33.89H103.7v26.28c-1.33,2-3.06,2.9-3.92,2.9a1.4,1.4,0,0,1-1.49-1.49,16.43,16.43,0,0,1,0-2.43V127.47h-6.2v26.67a17.51,17.51,0,0,0,.55,5.1,3.84,3.84,0,0,0,4,2.59,10,10,0,0,0,7.14-4.24v3.77Zm23.53-10.28V137.83a26.77,26.77,0,0,0-.63-6.91,4.94,4.94,0,0,0-4.94-3.84,8.37,8.37,0,0,0-6.43,3.69V115.7h-6.2v45.66h6.2v-3.3a8.44,8.44,0,0,0,6.43,3.77,4.94,4.94,0,0,0,4.94-3.84A27.68,27.68,0,0,0,133.51,151.08Zm11.14.39v-6.11H157l-.07-6.75a13.59,13.59,0,0,0-2-7.84,8.6,8.6,0,0,0-7.37-3.53,8.83,8.83,0,0,0-7.84,3.53,13.27,13.27,0,0,0-2,7.84v11.92a13.3,13.3,0,0,0,2,7.85,8.93,8.93,0,0,0,7.84,3.53,8.64,8.64,0,0,0,7.85-3.69,9,9,0,0,0,1.41-3.76v-5h-6.36a37.48,37.48,0,0,1,0,4.24,2.67,2.67,0,0,1-2.74,2.51C145.67,156.26,144.65,154.69,144.65,151.47Z"/></g></g></g></svg>