<svg xmlns="http://www.w3.org/2000/svg" viewBox="0 0 226.47 226.47"><defs><style>.cls-1{fill:none;}</style></defs><g id="Layer_2" data-name="Layer 2"><g id="Logo_Only_Black" data-name="Logo Only Black"><g id="Apple"><rect class="cls-1" width="226.47" height="226.47"/><path id="Apple-2" data-name="Apple" d="M112.88,83.86a25.26,25.26,0,0,1,0-4.08,27.15,27.15,0,0,1,21.49-23.54l2-.7a31.78,31.78,0,0,1,0,4.78A25.11,25.11,0,0,1,112.88,83.86ZM160,93.35a31.39,31.39,0,0,0-35.3-9.42c-5.26,2-8.71,3.85-13.1,2.59a36,36,0,0,0-26.75-3A30.2,30.2,0,0,0,65,105.11a62.73,62.73,0,0,0,4.24,38.68A83.32,83.32,0,0,0,77.66,159a22.27,22.27,0,0,0,19.06,11.92c5.41-.55,7.77-3.14,14.51-4.39,9.57-1.81,13.34,2.58,21.89,4.23,12.39,2.36,25-17.65,29.42-29.57.54-1.34.62-1.34.62-1.88C142.53,128.57,141.9,106.29,160,93.35Z"/></g></g></g></svg>