<svg xmlns="http://www.w3.org/2000/svg" viewBox="0 0 226.47 226.47"><defs><style>.cls-1{fill:none;}</style></defs><g id="Layer_2" data-name="Layer 2"><g id="Logo_Only_Black" data-name="Logo Only Black"><g id="Dribbble"><rect class="cls-1" width="226.47" height="226.47"/><path id="Dribbble-2" data-name="Dribbble" d="M113.27,52.4a60.8,60.8,0,1,0,60.8,60.79A60.79,60.79,0,0,0,113.27,52.4Zm39.22,29.73v-.08a50,50,0,0,1,10.75,28.16,91.48,91.48,0,0,0-34.2-.39c-1.26-2.9-2.51-5.73-3.84-8.39A73.25,73.25,0,0,0,152.49,82.13Zm-7.88-7.88A61.89,61.89,0,0,1,120,91.54l-3.14-5.33a169.78,169.78,0,0,0-15.69-21.89A50.08,50.08,0,0,1,144.61,74.25ZM90.68,68.52a157.9,157.9,0,0,1,19.14,26.79,161.34,161.34,0,0,1-45.34,5.49A50.29,50.29,0,0,1,90.68,68.52ZM62.75,113.27v-1.72H67.3a181,181,0,0,0,29.5-2.36A133.48,133.48,0,0,0,114.68,105q1.74,3.53,3.46,7.29a77.89,77.89,0,0,0-24,13.26,88.46,88.46,0,0,0-18.59,20.63A50,50,0,0,1,62.75,113.27Zm20.48,40.32a77.51,77.51,0,0,1,17.26-19.69,67.06,67.06,0,0,1,21.73-11.76,167,167,0,0,1,9,37.73A50.05,50.05,0,0,1,83.23,153.59Zm58.44.94-.31-.07a177.52,177.52,0,0,0-8-34.75A82.59,82.59,0,0,1,163.08,121,50.07,50.07,0,0,1,141.67,154.53Z"/></g></g></g></svg>