<svg xmlns="http://www.w3.org/2000/svg" viewBox="0 0 226.47 226.47"><defs><style>.cls-1{fill:none;}</style></defs><g id="Layer_2" data-name="Layer 2"><g id="Logo_Only_Black" data-name="Logo Only Black"><g id="Instagram"><rect class="cls-1" width="226.47" height="226.47"/><path id="Instagram-2" data-name="Instagram" d="M184.34,66.68a37.49,37.49,0,0,0-29.81-25.89C153,40,150.61,40,149,39.22H78.44l-8.63,2.67A38.43,38.43,0,0,0,40,75.62a58.75,58.75,0,0,0-.79,11.77V142.3a43.23,43.23,0,0,0,14.91,35,43,43,0,0,0,29,9.42H142a43.22,43.22,0,0,0,35.3-14.91,54.55,54.55,0,0,0,9.42-24.32v-69A62.84,62.84,0,0,0,184.34,66.68Zm-11,77.66c-.78,18-11,29-29,29q-30.6,1.17-61.19,0a26.82,26.82,0,0,1-29-29V83.15a25.13,25.13,0,0,1,0-4.59,26.82,26.82,0,0,1,29-24.43q30.6-1.18,61.19,0a28.05,28.05,0,0,1,2.9,0,27.6,27.6,0,0,1,26.12,29Q174.53,113.75,173.36,144.34ZM162.69,74.05a9.41,9.41,0,1,1-18.82,0,9.09,9.09,0,0,1,8.77-9.41c.21,0,.43,0,.64,0A10.11,10.11,0,0,1,162.69,74.05Zm-48.63,1.57a38.52,38.52,0,0,0-38.44,38.44,39.21,39.21,0,0,0,38.44,38.43,38.5,38.5,0,0,0,38.43-38.43A39.21,39.21,0,0,0,114.06,75.62Zm23.53,38.43a23.92,23.92,0,1,1-23.53-24.31,23.54,23.54,0,0,1,23.53,23.53Z"/></g></g></g></svg>