<svg xmlns="http://www.w3.org/2000/svg" viewBox="0 0 226.47 226.47"><defs><style>.cls-1{fill:none;}</style></defs><g id="Layer_2" data-name="Layer 2"><g id="Logo_Only_Black" data-name="Logo Only Black"><g id="Soundcloud"><rect class="cls-1" width="226.47" height="226.47"/><path id="Soundcloud-2" data-name="Soundcloud" d="M52,118.76l1.49,7.85L52,133.35v.55c-.79,0-.79,0-.79-.55l-.78-6.74.78-7.85Zm4.75-4.67a.78.78,0,0,0-1,.5.82.82,0,0,0,0,.49l-.86,11.29.79,11.3h1.56l.79-11.3-.79-11.29A.77.77,0,0,0,56.76,114.09Zm4.19-2v.78l-1.49,13.49L61,139.16v.78c.79,0,.79,0,.79-.78l1.49-12.79-1.49-13.49C61.74,112.1,61.74,112.1,61,112.1Zm5.5-.79h-.16l-.79.79-.78,14.27.78,13.5.79.78a.7.7,0,0,0,.78-.62v-.16l1.49-13.5L67.07,112.1A.72.72,0,0,0,66.45,111.31Zm5.26,1.49h-.17c-.78,0-.78,0-.78.79l-1.49,12.78,1.33,13.57c0,.71,0,.71.94.71a.69.69,0,0,0,.78-.62v-.16l1.5-13.5-1.5-12.78A.71.71,0,0,0,71.71,112.8ZM77,104.57h-.17c-.78,0-1.49,0-1.49.78l-.78,21,.78,13.49c0,.79.79.79,1.49.79a.71.71,0,0,0,.79-.62v-.17l.78-13.49-.78-21A.69.69,0,0,0,77,104.57Zm4.23-5.26-.79.78-.78,26.28.78,13.5a.71.71,0,0,0,.62.78h.17c.78,0,1.49,0,1.49-.78l.78-13.5-.78-26.28A2.61,2.61,0,0,0,81.27,99.31Zm5-2.2c-.79,0-.79.79-.79,1.49l-.78,27.77.78,13.5c0,.78,0,.78.79.78s1.49,0,1.49-.78l.78-13.5L87.78,98.6A1.65,1.65,0,0,0,86.29,97.11Zm5.57-.86c-.71,0-1.49,0-1.49.78l-.79,29.34.79,13.5c-.08.78.7.78,1.49.78s1.49,0,1.49-.78l.78-13.5L93.35,97C93.35,96.25,92.56,96.25,91.86,96.25Zm5.25.08a1.49,1.49,0,0,0-1.49,1.49l-.78,28.55.78,12.79a1.49,1.49,0,0,0,3,0l.79-12.79L98.6,97.82A1.49,1.49,0,0,0,97.11,96.33Zm5.18,1.49a1.49,1.49,0,0,0-1.49,1.49L100,126.37l.78,12.79a1.49,1.49,0,1,0,3,0l.79-12.79-.79-27.06A1.49,1.49,0,0,0,102.29,97.82Zm5.33-5.18a1.49,1.49,0,0,0-1.49,1.49l-.78,32.32.78,12.79a1.66,1.66,0,0,0,1.49,1.41,1.64,1.64,0,0,0,1.49-1.49l.79-12.79-.79-32.24A1.49,1.49,0,0,0,107.62,92.64Zm5.26-3.06a1.64,1.64,0,0,0-1.49,1.49l-.78,35.3.78,12.79a1.49,1.49,0,0,0,3,0l.79-12.79-.79-35.3A1.64,1.64,0,0,0,112.88,89.58ZM176,125.51a15.22,15.22,0,0,0-14.74-15.68H161a14.57,14.57,0,0,0-6,.79,27.62,27.62,0,0,0-27.07-24.79,43.92,43.92,0,0,0-10.51,1.49c-.78.78-1.49.78-1.49,2.27v49.58c0,.78.79,1.49,2.28,1.49H161A15.06,15.06,0,0,0,176,125.59Z"/></g></g></g></svg>