<svg xmlns="http://www.w3.org/2000/svg" viewBox="0 0 226.47 226.47"><defs><style>.cls-1{fill:none;}</style></defs><g id="Layer_2" data-name="Layer 2"><g id="Logo_Only_Black" data-name="Logo Only Black"><g id="Whatsapp"><rect class="cls-1" width="226.47" height="226.47"/><path id="Whatsapp-2" data-name="Whatsapp" d="M164.29,85.85A57.42,57.42,0,1,0,63.07,140.1a5.12,5.12,0,0,1,0,3.37c-1.81,7-3.77,13.89-5.65,20.87l-1.8,6.82c3.13-.62,13.18-3.45,28.71-6.9a5.75,5.75,0,0,1,3.53,0,57.42,57.42,0,0,0,76.43-78.41ZM121,160.34a47.09,47.09,0,0,1-31.77-6,4.72,4.72,0,0,0-3.92-.55C80,155.16,74.76,156.5,69,158c1.57-4.63,2.12-9,3.53-12.79a10,10,0,0,0-1.1-9.1A48,48,0,1,1,121,160.34Zm22.2-32.95A12.64,12.64,0,0,1,131,140.51a13.58,13.58,0,0,1-2.62-.17c-11.21-.4-29.1-9.26-41.34-30.52a17.25,17.25,0,0,1,2.67-22,7.83,7.83,0,0,1,7.37-1.1c.63,0,1.26,1,1.57,1.73,1.65,3.68,3.22,7.45,4.63,11.21.78,2-.63,3.93-3.53,7.22a2.51,2.51,0,0,0,0,3.29,39.29,39.29,0,0,0,19.93,17.11,2.34,2.34,0,0,0,3.05-.79c4.55-5.57,5-7.22,7.85-6.12C142.22,125.9,143.08,126.14,143.16,127.39Z"/></g></g></g></svg>