<svg xmlns="http://www.w3.org/2000/svg" viewBox="0 0 226.47 226.47"><g id="Layer_2" data-name="Layer 2"><g id="Black"><path id="Dropbox" d="M175.64,0H50.83A50.83,50.83,0,0,0,0,50.83V175.64a50.83,50.83,0,0,0,50.83,50.83H175.64a50.83,50.83,0,0,0,50.83-50.83V50.83A50.83,50.83,0,0,0,175.64,0ZM87.94,58.83l25.41,21.26L76.64,102.76l-25-20.16Zm-11.3,43.93,36.71,22.51L87.94,146.45,51.62,122.92Zm73.11,49.11-36.4,21.8-36.16-21.8V144L88,151.08l25.34-21.26,25.42,21.26,11-7.06Zm-11.14-5.42-25.26-21.18,36.56-22.59L113.35,80.09,138.61,59,174.85,82.6l-24.94,20.08,24.94,20.08Z"/></g></g></svg>