<svg xmlns="http://www.w3.org/2000/svg" viewBox="0 0 226.47 226.47"><g id="Layer_2" data-name="Layer 2"><g id="Black"><path id="Google_Plus" data-name="Google Plus" d="M175.64,0H50.83A50.83,50.83,0,0,0,0,50.83V175.64a50.83,50.83,0,0,0,50.83,50.83H175.64a50.83,50.83,0,0,0,50.83-50.83V50.83A50.83,50.83,0,0,0,175.64,0ZM132.41,144.65a41.83,41.83,0,0,1-23.53,15.69,51.22,51.22,0,0,1-15.69,1.57,47.09,47.09,0,0,1-25.65-9.1A47.63,47.63,0,0,1,48.71,124.1a45.81,45.81,0,0,1-1-12.95A48.18,48.18,0,0,1,84.17,67.23,37.15,37.15,0,0,1,92,66h4.62a45.8,45.8,0,0,1,22.83,6.2A59,59,0,0,1,128,78.44L113.74,92.17a26,26,0,0,0-14.12-6.82,28.38,28.38,0,0,0-31.37,22.12,27.4,27.4,0,0,0-.55,8.71,29,29,0,0,0,19.84,25,28.25,28.25,0,0,0,10.36,1.49,27.68,27.68,0,0,0,14-4.47,21.9,21.9,0,0,0,9.49-14.44H95.62V104.41H141.2A51.6,51.6,0,0,1,132.41,144.65Zm67.15-26.43H182.77V135h-13.1V118.22H152.89V105h16.78V88.33h13.1V105h16.79Z"/></g></g></svg>