<svg xmlns="http://www.w3.org/2000/svg" viewBox="0 0 226.47 226.47"><g id="Layer_2" data-name="Layer 2"><g id="Black"><path id="Instagram" d="M173.36,83.15a27.6,27.6,0,0,0-26.12-29,28.05,28.05,0,0,0-2.9,0q-30.6-1.18-61.19,0a26.82,26.82,0,0,0-29,24.43,25.13,25.13,0,0,0,0,4.59v61.19a26.82,26.82,0,0,0,29,29q30.6,1.19,61.19,0c18,0,28.24-11,29-29Q174.53,113.74,173.36,83.15Zm-59.3,69.34a39.21,39.21,0,0,1-38.44-38.43,38.52,38.52,0,0,1,38.44-38.44,39.21,39.21,0,0,1,38.43,38.44A38.5,38.5,0,0,1,114.06,152.49Zm39.21-69a9.4,9.4,0,0,1-9.4-9.41,9.09,9.09,0,0,1,8.77-9.41c.21,0,.43,0,.64,0a10.11,10.11,0,0,1,9.41,9.41A9.41,9.41,0,0,1,153.27,83.46Zm-15.68,29.81v.78a23.92,23.92,0,1,1-23.53-24.31A23.54,23.54,0,0,1,137.59,113.27Zm88.88,62.37V50.83A50.84,50.84,0,0,0,175.63,0H50.83A50.83,50.83,0,0,0,0,50.83V175.64a50.83,50.83,0,0,0,50.83,50.83h124.8A50.84,50.84,0,0,0,226.47,175.64ZM142,186.7H83.15a43,43,0,0,1-29-9.42,43.22,43.22,0,0,1-14.91-35V87.39A58.75,58.75,0,0,1,40,75.62a38.44,38.44,0,0,1,29.8-33.73l8.63-2.67H149c1.57.79,3.92.79,5.49,1.57a37.49,37.49,0,0,1,29.81,25.89,63,63,0,0,1,2.36,11.76v69a54.55,54.55,0,0,1-9.42,24.32A43.22,43.22,0,0,1,142,186.7Z"/></g></g></svg>