<svg xmlns="http://www.w3.org/2000/svg" viewBox="0 0 226.47 226.47"><g id="Layer_2" data-name="Layer 2"><g id="Black"><path id="RSS" d="M175.64,0H50.83A50.83,50.83,0,0,0,0,50.83V175.64a50.83,50.83,0,0,0,50.83,50.83H175.64a50.83,50.83,0,0,0,50.83-50.83V50.83A50.83,50.83,0,0,0,175.64,0ZM74.13,164.89a15,15,0,1,1,15-15A15,15,0,0,1,74.13,164.89Zm35.69-.16a50.68,50.68,0,0,0-50.67-50.67l.07-21a71.63,71.63,0,0,1,71.39,71.7Zm36.71,0a87.68,87.68,0,0,0-87.3-87.54V56.4A108.49,108.49,0,0,1,167.32,164.73Z"/></g></g></svg>