<svg xmlns="http://www.w3.org/2000/svg" viewBox="0 0 226.47 226.47"><g id="Layer_2" data-name="Layer 2"><g id="Black"><path id="Slack" d="M175.64,0H50.83A50.83,50.83,0,0,0,0,50.83V175.64a50.83,50.83,0,0,0,50.83,50.83H175.64a50.83,50.83,0,0,0,50.83-50.83V50.83A50.83,50.83,0,0,0,175.64,0Zm-.79,126.14a14.91,14.91,0,0,1-5.33,3.76l-13,4.47,4.23,12.56a11,11,0,0,1-20.94,6.74l-4.24-12.47L112,149l3.61,12.24a10.91,10.91,0,1,1-20.79,6.59l-4.16-12.24-11.61,4a12,12,0,0,1-3.76.63,10.44,10.44,0,0,1-10.2-7.06v-.47a11,11,0,0,1,7.06-13.49l11.84-4L76.17,111.7l-11.85,4.08a11.65,11.65,0,0,1-3.6.63,10.43,10.43,0,0,1-10.2-7.14v-.47a10.89,10.89,0,0,1,7.06-13.33l11.92-4-4.08-12a11,11,0,0,1,6.91-13.88A11.17,11.17,0,0,1,75.78,65a11,11,0,0,1,10.51,7.84l4.08,12L113.9,77,109.82,65v-.47a11.11,11.11,0,1,1,21.34-6.2l4.08,12.08,12.23-4.07a12.31,12.31,0,0,1,3.3-.48,10.75,10.75,0,0,1,10.43,7.3v.47a10.74,10.74,0,0,1-7.84,12.71l-11.61,4,7.84,23.53,12.4-4.16a11.39,11.39,0,0,1,3.53-.62A10.82,10.82,0,0,1,176,116.25v.47A11.31,11.31,0,0,1,174.85,126.14ZM121,97.43,128.88,121l-23.53,7.84-7.84-23.53Z"/></g></g></svg>