<svg xmlns="http://www.w3.org/2000/svg" viewBox="0 0 226.47 226.47"><g id="Layer_2" data-name="Layer 2"><g id="Black"><path id="Tumblr" d="M175.64,0H50.83A50.83,50.83,0,0,0,0,50.83V175.64a50.83,50.83,0,0,0,50.83,50.83H175.64a50.83,50.83,0,0,0,50.83-50.83V50.83A50.83,50.83,0,0,0,175.64,0ZM137.43,171.48a47.64,47.64,0,0,1-39.22-5.65,23.52,23.52,0,0,1-8.86-21.57V102H76.25V85.19C93.66,79.86,98.06,68.64,100.57,53h17.1V83.31H145.2V102.6H117.74v22.13c0,18.19-.31,22.74,3.93,26,11.14,8.63,28.63-2.43,28.63-2.43,0,20.16,0,18,.31,18.2A68.82,68.82,0,0,1,137.43,171.48Z"/></g></g></svg>