<svg xmlns="http://www.w3.org/2000/svg" viewBox="0 0 226.47 226.47"><g id="Layer_2" data-name="Layer 2"><g id="Black"><path id="Viber" d="M140.65,63.93a146.12,146.12,0,0,0-54.91,0A31.35,31.35,0,0,0,65.82,83.07a104.89,104.89,0,0,0,0,45,31.35,31.35,0,0,0,19.92,19.14.8.8,0,0,1,.63.71v21.88a1.25,1.25,0,0,0,2.11.86L98.92,160l9.88-10.67a.66.66,0,0,1,.55,0,146.77,146.77,0,0,0,31.38-2.51,31.4,31.4,0,0,0,19.92-19.14v.39a104.73,104.73,0,0,0-.08-45A31.38,31.38,0,0,0,140.65,63.93Zm.08,65.27a16.92,16.92,0,0,1-7.3,7.84,17.34,17.34,0,0,1-3.13,1c-1.18-.39-2.36-.63-3.46-1.1A78.92,78.92,0,0,1,97.11,117,77.74,77.74,0,0,1,85.74,99.62c-1.41-3-2.67-6-3.92-9.1a7.85,7.85,0,0,1,2.35-7.84,18.41,18.41,0,0,1,6.12-4.63,3.92,3.92,0,0,1,4.94,1.18,63.61,63.61,0,0,1,7.85,10.67,5.1,5.1,0,0,1-1.42,6.9L100,98.05a5.53,5.53,0,0,0-1.26,1.34,3.54,3.54,0,0,0,0,3.14,28.42,28.42,0,0,0,15.69,17.65,8,8,0,0,0,4.08,1c2.43-.32,3.29-3.06,5-4.48a4.82,4.82,0,0,1,5.73,0c1.88,1.18,3.6,2.44,5.41,3.69a63.52,63.52,0,0,1,5.1,3.84A4,4,0,0,1,140.73,129.2ZM130.22,94.52a16.73,16.73,0,0,0-7-6.51,20.22,20.22,0,0,0-5.57-1.72l-2.83-.47-.17,0A1.57,1.57,0,0,1,113.35,84v-.16a1.58,1.58,0,0,1,1.72-1.41A23.2,23.2,0,0,1,124.73,85a19.5,19.5,0,0,1,10.59,15.14v3.46a8.68,8.68,0,0,1,0,1,1.66,1.66,0,0,1-1.07,1.06,1.65,1.65,0,0,1-2.07-1.06,4.23,4.23,0,0,1,0-1.42A17.86,17.86,0,0,0,130.22,94.52Zm-6,4.4a6.65,6.65,0,0,0-2.44-3.85,6.34,6.34,0,0,0-2-.94,6.87,6.87,0,0,0-2.74-.39h-.06a1.66,1.66,0,0,1-1.28-2,1.82,1.82,0,0,1,1.89-1.41h.08a10.12,10.12,0,0,1,10,10.19,4.83,4.83,0,0,1,0,1.42,1.49,1.49,0,0,1-1.65,1.09h-.08a1.79,1.79,0,0,1-1.8-1.81A18.43,18.43,0,0,0,124.26,98.92Zm17.49,9.88c-1.18,0-1.65.08-1.81-2s-.54-4.23-.54-6.27a26.31,26.31,0,0,0-21.18-22c-1.57-.55-3.85-.39-5-.55s-2.66-.15-2.66-1.49l0-.25a1.81,1.81,0,0,1,1.82-1.79h.86a29.9,29.9,0,0,1,29.34,24.48,27.52,27.52,0,0,1,.79,7.84l0,.27A1.72,1.72,0,0,1,141.75,108.8ZM175.64,0H50.83A50.83,50.83,0,0,0,0,50.83V175.64a50.83,50.83,0,0,0,50.83,50.83H175.64a50.83,50.83,0,0,0,50.83-50.83V50.83A50.83,50.83,0,0,0,175.64,0Zm-4.95,130.14a41.89,41.89,0,0,1-28.24,27.22,157.66,157.66,0,0,1-29.57,2.82h-8.71L90.76,174.07a5.34,5.34,0,0,1-9.18-3.69V157.12A42.21,42.21,0,0,1,54.91,130.3a115.63,115.63,0,0,1,0-49.82,41.89,41.89,0,0,1,29-27.06,156.85,156.85,0,0,1,59.14,0,41.89,41.89,0,0,1,28.24,27.22A115.58,115.58,0,0,1,170.69,130.14Z"/></g></g></svg>