<svg xmlns="http://www.w3.org/2000/svg" viewBox="0 0 226.47 226.47"><g id="Layer_2" data-name="Layer 2"><g id="Black"><path id="Whatsapp" d="M106,65.49A48,48,0,0,0,71.46,136.1a10,10,0,0,1,1.1,9.1C71.15,149,70.6,153.36,69,158c5.73-1.49,11-2.83,16.24-4.24a4.72,4.72,0,0,1,3.92.55,47.09,47.09,0,0,0,31.77,6A48,48,0,0,0,106,65.49Zm25,75a13.58,13.58,0,0,1-2.62-.17c-11.21-.4-29.1-9.26-41.34-30.52a17.25,17.25,0,0,1,2.67-22,7.83,7.83,0,0,1,7.37-1.1c.63,0,1.26,1,1.57,1.73,1.65,3.68,3.22,7.45,4.63,11.21.78,2-.63,3.93-3.53,7.22a2.51,2.51,0,0,0,0,3.29,39.29,39.29,0,0,0,19.93,17.11,2.34,2.34,0,0,0,3.05-.79c4.55-5.57,5-7.22,7.85-6.12,11.61,5.57,12.47,5.81,12.55,7.06A12.64,12.64,0,0,1,131,140.51ZM175.64,0H50.83A50.83,50.83,0,0,0,0,50.83V175.64a50.83,50.83,0,0,0,50.83,50.83H175.64a50.83,50.83,0,0,0,50.83-50.83V50.83A50.83,50.83,0,0,0,175.64,0ZM140.8,163.58a57.4,57.4,0,0,1-52.94.68,5.75,5.75,0,0,0-3.53,0c-15.53,3.45-25.57,6.28-28.71,6.9l1.8-6.82c1.88-7,3.85-13.88,5.65-20.87a5.12,5.12,0,0,0,0-3.37,57.42,57.42,0,1,1,77.73,23.48Z"/></g></g></svg>