<svg xmlns="http://www.w3.org/2000/svg" viewBox="0 0 226.47 226.47"><g id="Layer_2" data-name="Layer 2"><g id="Black"><path id="Yahoo" d="M175.64,0H50.83A50.83,50.83,0,0,0,0,50.83V175.64a50.83,50.83,0,0,0,50.83,50.83H175.64a50.83,50.83,0,0,0,50.83-50.83V50.83A50.83,50.83,0,0,0,175.64,0ZM148.1,95.47l-22.82,20.39-7.14,6.28v.55c-.47,6.74-.47,13.41-.47,20.16l.07,1.25,14.44.55h2.43v6h-54l-.47-.55v-5.33l.55-.55,9.26-.71,7.84-.63V122.84L80.09,101.51,66.83,85.27l-.94-.47L50.6,83.7,49.89,83V76.87l.47-.62h54.91l.47.62-.7,6.36-.47.47-7.46.55-7,.63,4.24,5.25c6,7.61,12.16,14.75,18.2,22.59h1l21.18-18,.7-.63h-.55l-12-.94h-4l-.47-.47V86.37l.47-.47h6.59l31.85-.55h6.9l.47.47v7.53l-.39.78L152.1,95.47Zm21,48.87-.24.23h-7.22l-.23-.23-.32-3.38-.23-3.29.08-.08,1.8.16,2.59.15,3,.24.55.08.24.15Zm6.9-42-.39,1.25-3.3,14.2-3.92,15.85-.24.16-5.57-.63h-.31l-.23-.16v-2l.07-1.8.16-5.5.08-6,.16-6,.07-5.88.16-4.16.08-.31,3.45.31,2.28.08,4.08.23,2.58.08.79.08Z"/></g></g></svg>